<svg version="1.0" xmlns="http://www.w3.org/2000/svg" width="800pt" height="800pt" viewBox="0 0 800 800">

  <g transform="translate(0,800) scale(0.1,-0.1)" stroke="none">

    <path d="M3680 7929 c-812 -70 -1559 -370 -2177 -876 -749 -612 -1242 -1460 -1397 -2403 -41 -246 -50 -367 -50 -645 -1 -403 42 -724 145 -1085 239 -837 761 -1586 1461 -2098 826 -604 1855 -865 2873 -726 726 98 1398 390 1961 850 632 517 1081 1197 1303 1974 61 213 108 462 133 700 16 157 16 607 0 760 -70 659 -284 1261 -634 1788 -636 957 -1632 1583 -2763 1736 -257 35 -616 46 -855 25z m490 -189 c228 -12 379 -30 581 -71 635 -127 1220 -415 1719 -844 111 -96 309 -296 407 -410 294 -345 538 -771 683 -1192 287 -831 276 -1719 -32 -2543 -89 -240 -235 -525 -381 -745 -324 -489 -785 -919 -1282 -1198 -211 -118 -610 -296 -626 -279 -5 6 -22 136 -43 335 -2 21 1 26 12 22 56 -21 207 -37 312 -32 132 7 202 23 316 77 119 55 353 215 337 231 -4 4 -55 -7 -113 -25 -58 -18 -138 -39 -179 -46 -149 -25 -399 15 -632 101 l-87 32 -4 66 c-3 36 -4 68 -2 70 2 2 65 -8 141 -23 249 -47 335 -57 543 -63 171 -5 219 -3 290 12 158 32 333 133 448 260 94 102 202 265 177 265 -3 0 -54 -33 -113 -73 -200 -134 -323 -186 -490 -207 -121 -14 -502 -24 -605 -15 l-89 7 69 45 c175 117 372 378 453 600 33 91 23 97 -51 28 -87 -82 -198 -178 -294 -255 -116 -92 -116 -92 -42 -9 78 88 75 75 51 294 -8 77 -17 163 -19 190 -3 28 -9 95 -15 150 -11 112 -26 286 -35 417 -4 48 -15 108 -24 134 -14 37 -16 53 -7 85 9 33 8 45 -7 67 -3 59 -58 115 -72 189 -23 126 -73 384 -85 440 -10 47 -14 52 -43 58 -44 9 -449 103 -519 120 -101 25 -222 92 -300 167 -40 38 -75 65 -79 61 -4 -5 -11 -39 -16 -78 -10 -67 -9 -72 18 -120 43 -77 59 -148 59 -254 0 -299 -131 -702 -290 -888 -33 -40 -65 -73 -69 -73 -4 0 -11 98 -14 218 -4 123 -17 307 -31 425 -34 282 -44 482 -25 475 8 -4 31 -13 51 -22 20 -9 39 -12 42 -8 2 4 -13 34 -35 67 -22 33 -48 84 -59 113 -25 66 -16 89 38 97 20 3 51 13 67 21 41 21 101 71 93 79 -3 3 -48 13 -99 22 -104 17 -262 13 -363 -8 l-60 -13 49 -42 c27 -24 61 -46 77 -49 15 -3 42 -8 58 -11 59 -11 47 -77 -37 -212 -31 -49 -40 -72 -28 -72 3 0 28 11 55 25 l48 25 -4 -98 c-3 -53 -18 -221 -34 -372 -16 -151 -32 -365 -36 -475 l-7 -199 -35 39 c-69 80 -111 142 -155 230 -85 170 -149 398 -168 599 -15 156 -4 239 46 344 l36 76 -12 73 c-6 40 -14 73 -17 73 -2 0 -37 -30 -76 -68 -90 -85 -227 -156 -343 -178 -7 -1 -125 -28 -262 -60 l-249 -58 -52 -261 c-63 -322 -70 -351 -105 -403 -26 -39 -27 -45 -16 -84 10 -36 9 -49 -4 -83 -11 -26 -23 -116 -36 -265 -18 -211 -37 -407 -59 -615 -5 -49 -12 -119 -16 -155 l-6 -66 81 -91 c45 -51 81 -94 81 -98 0 -21 -256 183 -427 341 -50 46 -94 84 -97 84 -22 0 46 -176 107 -277 92 -153 248 -327 370 -411 l58 -40 -88 -8 c-106 -8 -482 2 -608 17 -168 20 -286 72 -508 221 -49 33 -91 57 -95 54 -8 -9 13 -44 97 -157 113 -152 223 -244 375 -314 117 -55 218 -68 451 -62 110 3 245 13 300 21 119 19 372 65 399 73 18 5 19 1 13 -57 -3 -34 -9 -66 -14 -71 -18 -18 -231 -92 -332 -115 -58 -13 -158 -29 -222 -36 -101 -10 -127 -10 -202 5 -72 14 -206 52 -264 74 -7 3 -13 -1 -13 -8 1 -27 228 -181 344 -234 133 -60 185 -70 356 -69 123 1 171 5 230 21 41 12 76 20 78 18 3 -3 -10 -136 -30 -288 -13 -104 2 -101 -168 -35 -338 131 -697 339 -994 575 -237 189 -527 498 -717 764 -590 825 -814 1891 -609 2900 230 1128 972 2091 2016 2612 450 225 972 362 1478 386 83 5 156 9 161 9 6 1 98 -3 205 -8z"/>
    <path d="M1907 6310 c-173 -93 -319 -178 -398 -231 -66 -44 -101 -96 -153 -225 -38 -97 -109 -344 -101 -352 3 -3 15 4 28 15 12 11 114 101 227 200 113 100 226 203 251 229 76 80 323 427 312 438 -10 10 -12 9 -166 -74z" />
    <path d="M5920 6380 c0 -15 106 -171 206 -305 91 -123 145 -176 384 -385 91 -79 177 -155 192 -168 15 -14 31 -23 34 -19 9 8 -61 251 -100 348 -62 154 -83 183 -181 247 -112 72 -510 292 -530 292 -3 0 -5 -5 -5 -10z"/>
    <path d="M1284 6034 c-143 -76 -221 -141 -259 -214 -52 -102 -84 -236 -105 -446 -11 -111 -15 -592 -5 -602 3 -3 95 82 203 189 109 107 261 255 338 329 154 149 187 198 259 392 40 106 40 108 20 108 -8 0 -15 -4 -15 -9 0 -21 -184 -201 -261 -255 -103 -73 -168 -127 -279 -231 l-85 -80 -3 30 c-5 38 16 238 34 331 25 132 77 238 228 467 24 36 13 34 -70 -9z"/>
    <path d="M6630 6064 c0 -3 31 -56 69 -118 83 -132 135 -239 156 -321 20 -79 47 -300 43 -358 l-3 -46 -110 100 c-60 55 -155 132 -210 172 -114 82 -200 160 -265 241 -25 30 -51 55 -57 56 -7 0 -13 -1 -13 -3 0 -16 56 -162 88 -231 53 -112 108 -182 234 -296 56 -51 194 -184 305 -294 111 -110 205 -197 209 -193 4 4 7 123 7 265 -1 281 -17 457 -58 618 -49 192 -107 261 -316 377 -66 37 -79 42 -79 31z" />
    <path d="M763 5467 c-62 -114 -126 -255 -146 -325 -61 -202 -35 -585 59 -887 37 -121 137 -395 144 -395 3 0 25 62 48 138 61 193 104 278 217 427 199 264 263 376 329 582 56 176 51 180 -54 52 -41 -49 -143 -155 -227 -235 -162 -155 -206 -208 -264 -317 -43 -82 -40 -87 -69 108 -33 229 -23 590 26 893 11 69 -11 54 -63 -41z"/>
    <path d="M7165 5551 c-3 -6 -4 -24 -1 -39 4 -15 15 -108 26 -207 27 -244 27 -512 0 -700 -11 -77 -23 -147 -26 -155 -4 -10 -18 9 -40 53 -61 120 -99 165 -281 335 -67 62 -159 158 -205 213 -45 54 -86 99 -90 99 -5 0 -8 -7 -8 -15 0 -26 86 -279 115 -335 37 -74 144 -233 258 -382 118 -156 175 -275 232 -490 10 -38 21 -68 25 -68 15 0 163 436 194 571 14 62 35 243 41 354 14 232 -18 369 -140 610 -82 161 -89 173 -100 156z" />
    <path d="M477 4618 c-21 -85 -40 -298 -41 -463 -1 -157 2 -203 18 -265 43 -165 154 -405 273 -589 76 -117 251 -349 264 -350 3 -1 9 99 12 222 3 122 11 254 17 292 6 39 37 149 70 245 63 185 94 328 125 583 16 133 15 162 -4 141 -24 -25 -294 -530 -316 -592 -18 -51 -29 -110 -38 -214 l-13 -143 -56 111 c-161 317 -226 522 -262 824 -26 213 -27 220 -36 220 -4 0 -10 -10 -13 -22z" />
    <path d="M7490 4627 c0 -40 -43 -348 -60 -431 -35 -173 -120 -395 -235 -616 l-54 -105 -1 58 c0 107 -21 250 -46 316 -14 36 -67 143 -118 236 -52 94 -115 209 -141 257 -45 85 -61 106 -71 95 -8 -8 35 -330 62 -464 13 -67 44 -177 68 -245 81 -226 96 -317 96 -600 0 -98 3 -178 8 -178 11 1 180 220 250 326 122 185 242 437 288 609 33 121 20 548 -21 733 -6 23 -25 31 -25 9z"/>
    <path d="M1196 3663 c-13 -42 -58 -329 -71 -457 -26 -240 -19 -374 29 -531 8 -27 13 -51 11 -54 -3 -2 -33 18 -67 44 -170 130 -368 360 -551 638 -61 92 -114 167 -119 167 -11 0 -10 -13 7 -139 23 -166 49 -252 110 -370 122 -234 320 -456 533 -598 123 -82 399 -230 409 -219 3 3 -8 54 -25 113 -109 380 -143 588 -141 869 1 127 -3 186 -16 239 -18 77 -94 315 -100 315 -2 0 -6 -8 -9 -17z"/>
    <path d="M6742 3553 c-66 -202 -72 -238 -72 -434 0 -289 -35 -499 -146 -882 -14 -49 -24 -91 -21 -94 10 -10 288 139 409 219 235 156 442 398 560 653 43 93 61 160 83 306 17 121 18 149 7 149 -5 0 -56 -73 -115 -162 -181 -279 -376 -505 -550 -640 -66 -50 -78 -57 -72 -37 71 220 72 433 3 844 -16 99 -33 186 -37 193 -5 8 -24 -36 -49 -115z"/>
    <path d="M1433 2888 c11 -30 107 -367 117 -413 6 -27 20 -99 31 -160 34 -190 63 -256 175 -403 35 -45 64 -84 64 -87 0 -2 -55 29 -122 69 -68 40 -229 129 -358 197 -333 176 -373 204 -577 403 -98 95 -102 89 -44 -61 54 -138 79 -186 148 -278 242 -326 683 -526 1256 -571 48 -4 87 -4 87 0 0 3 -30 48 -67 98 -155 216 -207 309 -299 542 -32 82 -86 197 -119 256 -89 155 -268 420 -284 420 -7 0 -11 -6 -8 -12z"/>
    <path d="M6428 2737 c-181 -275 -210 -329 -294 -544 -75 -192 -133 -297 -284 -508 -31 -44 -60 -86 -65 -94 -7 -12 6 -13 81 -7 672 52 1166 322 1360 741 46 100 94 232 87 239 -3 3 -57 -44 -119 -104 -174 -168 -216 -197 -556 -376 -174 -92 -356 -195 -448 -253 -30 -19 -27 -15 56 94 105 140 131 203 170 420 20 109 113 468 141 543 3 6 -1 12 -8 12 -8 0 -62 -73 -121 -163z"/>

  </g>

</svg>